<?xml version="1.0" encoding="UTF-8"?>
<svg id="Layer_2" data-name="Layer 2" xmlns="http://www.w3.org/2000/svg" viewBox="0 0 43.75 43.75">
  <g id="Icon" fill="currentColor">
    <g>
      <path d="M21.875,1.5c11.23481,0,20.375,9.14019,20.375,20.375s-9.14019,20.375-20.375,20.375S1.5,33.10981,1.5,21.875,10.64019,1.5,21.875,1.5M21.875,0C9.79377,0,0,9.79377,0,21.875s9.79377,21.875,21.875,21.875,21.875-9.79377,21.875-21.875S33.95623,0,21.875,0h0Z"/>
      <path d="M30.20313,12.48621l-1.21451-1.21451c-.21674-.21674-.13517-.58523.15279-.69028l5.49346-2.00378c.33483-.12214.65963.20267.53749.53749l-2.00382,5.49342c-.10501.288-.4735.36957-.69024.15283l-1.21447-1.21447L13.54687,31.26379l1.21451,1.21451c.21674.21674.13517.58523-.15279.69028l-5.49346,2.00378c-.33483.12214-.65963-.20267-.53749-.53749l2.00382-5.49342c.10501-.288.4735-.36957.69024-.15283l1.21447,1.21447L30.20313,12.48621Z"/>
    </g>
  </g>
</svg>
