<?xml version="1.0" encoding="UTF-8"?>
<svg id="Layer_2" data-name="Layer 2" xmlns="http://www.w3.org/2000/svg" viewBox="0 0 43.75 43.75">
  <g id="Icon" fill="currentColor">
    <g>
      <path d="M21.12513,9.37514h-1.71758c-.30652,0-.5094-.31824-.38006-.59614l2.46758-5.30135c.15039-.32312.60974-.32312.76013,0l2.46751,5.30135c.12939.2779-.07349.59614-.38.59614h-1.71752l-.00006,25.05551h1.71758c.30652,0,.5094.31824.38006.59614l-2.46758,5.30135c-.15039.32312-.60974.32312-.76013,0l-2.46751-5.30135c-.12939-.2779.07349-.59614.38-.59614h1.71752l.00006-25.05551Z"/>
      <path d="M42.99701,43.74952l-42.24701.00048c-.41406,0-.75-.33594-.75-.75001s.33594-.75001.75-.75001l42.24701-.00048c.41406,0,.75.33594.75.75001s-.33594.75001-.75.75001Z"/>
      <path d="M43,1.50002H.75025C.33619,1.50002.00025,1.16408.00025.75001s.33594-.75001.75-.75001h42.24975c.41406,0,.75.33594.75.75001s-.33594.75001-.75.75001Z"/>
    </g>
  </g>
</svg>
