<?xml version="1.0" encoding="UTF-8"?>
<svg id="Layer_2" data-name="Layer 2" xmlns="http://www.w3.org/2000/svg" viewBox="0 0 43.75 43.75">
  <g id="Icon" fill="currentColor">
    <g>
      <path d="M13.57467,31.26377l1.21453,1.21453c.21674.21674.13517.58524-.15279.69029l-5.49352,2.00381c-.33483.12214-.65964-.20267-.5375-.5375l2.00384-5.49348c.10501-.288.4735-.36958.69024-.15283l1.21448,1.21448L30.23112,12.48598l-1.21453-1.21453c-.21674-.21674-.13517-.58524.15279-.69029l5.49352-2.00381c.33483-.12214.65964.20267.5375.5375l-2.00384,5.49348c-.10501.288-.4735.36958-.69024.15283l-1.21448-1.21448L13.57467,31.26377Z"/>
      <path d="M16.37519,42.99999h0c0,.41422-.33579.75001-.75001.75001H.75001c-.41422,0-.75001-.33579-.75001-.75001v-14.87517c0-.41422.33579-.75001.75001-.75001h0c.41422,0,.75001.33579.75001.75001v13.37516c0,.41422.33579.75001.75001.75001h13.37516c.41422,0,.75001.33579.75001.75001Z"/>
      <path d="M27.37481.75001h0c0-.41422.33579-.75001.75001-.75001h14.87517c.41422,0,.75001.33578.75001.75v14.87517c0,.41422-.33578.75001-.75.75001h0c-.41422,0-.75001-.33579-.75001-.75001V2.25003c0-.41422-.33579-.75001-.75001-.75001h-13.37516c-.41422,0-.75001-.33579-.75001-.75Z"/>
    </g>
  </g>
</svg>
