<?xml version="1.0" encoding="UTF-8"?>
<svg id="Layer_2" data-name="Layer 2" xmlns="http://www.w3.org/2000/svg" viewBox="0 0 43.76001 43.75022">
  <g id="Icon" fill="currentColor">
    <path d="M43,42.25h-12.65002c-1.98999-14.97003-13.87994-26.85999-28.84998-28.84003V.75c0-.41003-.33002-.75-.73999-.75-.41998,0-.76001.33997-.76001.76001v14l.01001,28.23999h-.01001c0,.41998.34003.76001.76001.75h42.23999c.41998,0,.76001-.33002.76001-.75,0-.41003-.34003-.75-.76001-.75ZM2.22998,42.25c-.39996,0-.71997-.32001-.71997-.72003l-.01001-26.59998c14.14001,1.96002,25.37,13.17999,27.33002,27.32001H2.22998Z"/>
  </g>
</svg>
