<?xml version="1.0" encoding="UTF-8"?>
<svg id="Layer_2" data-name="Layer 2" xmlns="http://www.w3.org/2000/svg" viewBox="0 0 43.75 43.75">
  <g id="Icon" fill="currentColor">
    <g>
      <path d="M9.37514,22.62487v1.71758c0,.30652-.31824.5094-.59614.38006l-5.30135-2.46758c-.32312-.15039-.32312-.60974,0-.76013l5.30135-2.46751c.2779-.12939.59614.07349.59614.38v1.71752l25.05551.00006v-1.71758c0-.30652.31824-.5094.59614-.38006l5.30135,2.46758c.32312.15039.32312.60974,0,.76013l-5.30135,2.46751c-.2779.12939-.59614-.07349-.59614-.38v-1.71752l-25.05551-.00006Z"/>
      <path d="M43.74952.75299l.00048,42.24701c0,.41406-.33594.75-.75001.75s-.75001-.33594-.75001-.75l-.00048-42.24701c0-.41406.33594-.75.75001-.75s.75001.33594.75001.75Z"/>
      <path d="M1.50002.75v42.24975c0,.41406-.33594.75-.75001.75s-.75001-.33594-.75001-.75V.75c0-.41406.33594-.75.75001-.75s.75001.33594.75001.75Z"/>
    </g>
  </g>
</svg>
