<?xml version="1.0" encoding="UTF-8"?>
<svg id="Layer_2" data-name="Layer 2" xmlns="http://www.w3.org/2000/svg" viewBox="0 0 43.75 43.75">
  <g id="Icon" fill="currentColor">
    <g>
      <path d="M21.875,1.5c11.23481,0,20.375,9.14019,20.375,20.375s-9.14019,20.375-20.375,20.375S1.5,33.10981,1.5,21.875,10.64019,1.5,21.875,1.5M21.875,0C9.79377,0,0,9.79377,0,21.875s9.79377,21.875,21.875,21.875,21.875-9.79377,21.875-21.875S33.95623,0,21.875,0h0Z"/>
      <path d="M34.63501,8.57501l-5.48999,2.00995c-.29004.10004-.37.47003-.16003.69l1.22003,1.21002-6.72003,6.71997c-.46997-.28998-1.01996-.44995-1.60999-.44995-1.72998,0-3.12,1.38995-3.12,3.12,0,.58997.15997,1.14001.45001,1.60999.26001.44.62.79999,1.06,1.06.46997.28998,1.01996.45001,1.60999.45001,1.72998,0,3.12-1.39001,3.12-3.12,0-.59003-.15997-1.14001-.45001-1.60999l6.72003-6.72003,1.20996,1.22003c.22003.20996.59003.12994.69-.16003l2.01001-5.48999c.12-.33002-.20996-.66003-.53998-.53998Z"/>
    </g>
  </g>
</svg>
