<?xml version="1.0" encoding="UTF-8"?>
<svg id="Layer_2" data-name="Layer 2" xmlns="http://www.w3.org/2000/svg" viewBox="0 0 43.75 43.75">
  <g id="Layer_1-2" data-name="Layer 1">
    <path d="M26.29498,21.87L42.83502,5.32996c1.21997-1.21997,1.21997-3.19995,0-4.41998-.61005-.60999-1.41003-.90997-2.21002-.90997s-1.59998.29999-2.21002.90997l-16.53998,16.53998L5.33502.90997c-.61005-.60999-1.41003-.90997-2.21002-.90997S1.52502.29999.91498.90997C-.30499,2.13-.30499,4.10999.91498,5.32996l16.54004,16.54004L.91498,38.40997c-1.21997,1.22003-1.21997,3.20001,0,4.41998.61005.61005,1.41003.92004,2.21002.92004s1.59998-.31,2.21002-.92004l16.53998-16.53998,16.53998,16.53998c.61005.61005,1.41003.92004,2.21002.92004s1.59998-.31,2.21002-.92004c1.21997-1.21997,1.21997-3.19995,0-4.41998l-16.54004-16.53998ZM1.97498,4.26996c-.31-.31-.47998-.71997-.47998-1.14996s.16998-.84003.47998-1.15002.72003-.46997,1.15002-.46997.84003.15997,1.15002.46997l16.53998,16.54004-2.29999,2.29999L1.97498,4.26996ZM4.27502,41.76996c-.31.31-.72003.48004-1.15002.48004s-.84003-.17004-1.15002-.48004-.47998-.71997-.47998-1.14996.16998-.84003.47998-1.15002l16.54004-16.53998,1.06-1.06,2.29999-2.29999,1.06-1.06L39.47498,1.96997c.31-.31.72003-.46997,1.15002-.46997s.84003.15997,1.15002.46997.46997.72003.46997,1.15002-.15997.83997-.46997,1.14996l-16.54004,16.54004-1.06,1.06-2.29999,2.29999-1.06,1.06L4.27502,41.76996ZM41.77502,41.76996c-.31.31-.72003.48004-1.15002.48004s-.84003-.17004-1.15002-.48004l-16.53998-16.53998,2.29999-2.29999,16.54004,16.53998c.31.31.46997.72003.46997,1.15002s-.15997.83997-.46997,1.14996Z"/>
  </g>
</svg>