<?xml version="1.0" encoding="UTF-8"?>
<svg id="Layer_2" data-name="Layer 2" xmlns="http://www.w3.org/2000/svg" viewBox="0 0 43.75 43.75">
  <g id="Layer_1-2" data-name="Layer 1">
    <path d="M37.49142,0c-3.44922,0-6.23856,2.79935-6.23856,6.25858,0,.57982.08,1.12975.22993,1.65959L7.91817,31.48279c-.52985-.14999-1.07971-.22993-1.65959-.22993-3.45923,0-6.25858,2.78934-6.25858,6.23856,0,3.45917,2.79935,6.25858,6.25858,6.25858,3.44922,0,6.23856-2.79941,6.23856-6.25858,0-.57988-.08-1.12975-.22993-1.65965l23.56462-23.56455c.52985.14993,1.07971.22993,1.65959.22993,3.45923,0,6.25858-2.7894,6.25858-6.23856,0-3.45923-2.79935-6.25858-6.25858-6.25858ZM10.99748,37.49142c0,2.6194-2.12952,4.75892-4.73891,4.75892-2.6194,0-4.75892-2.13953-4.75892-4.75892,0-2.60939,2.13953-4.73891,4.75892-4.73891.12998,0,.24994,0,.36991.01995.58989.04003,1.15971.19997,1.6696.44991.97982.45992,1.76961,1.24971,2.22953,2.22947.24994.50989.40988,1.07977.44985,1.66966.02001.11997.02001.23994.02001.36991ZM11.63735,34.34212c-.52991-.92978-1.29969-1.69962-2.22947-2.22947l22.70477-22.70483c.52991.92978,1.29969,1.69962,2.22947,2.22953l-22.70477,22.70477ZM37.49142,10.99748c-.12998,0-.24994,0-.36991-.02001-.58989-.03997-1.15971-.19997-1.6696-.44991-.97982-.45986-1.76961-1.24971-2.22953-2.22947-.24994-.50989-.40988-1.07977-.44985-1.6696-.02001-.11997-.02001-.23994-.02001-.36991,0-2.6194,2.12952-4.75892,4.73891-4.75892,2.6194,0,4.75892,2.13953,4.75892,4.75892,0,2.60939-2.13953,4.73891-4.75892,4.73891Z"/>
  </g>
</svg>