<?xml version="1.0" encoding="UTF-8"?>
<svg id="Layer_2" data-name="Layer 2" xmlns="http://www.w3.org/2000/svg" viewBox="0 0 43.75 43.75">
  <g id="Icon">
    <path d="M43.47003,21.41998l-1.21969-.60999-1.11974-.56-2.99931-1.5-5.52876-2.76001c-.06999-.04004-.14993-.06-.22993-.06-.25995,0-.49989.20996-.49989.51001v2.31h-6.87843v-6.88h2.30947c.37992,0,.61985-.39001.44991-.73004l-2.75938-5.52997-1.49966-3-.55987-1.12-.60985-1.22003c-.09001-.17999-.26996-.26996-.44991-.26996s-.3599.08997-.44991.26996l-.60985,1.22003-.55987,1.12-1.49966,3-2.75938,5.52997c-.16994.34003.06999.73004.44991.73004h2.30947v6.88h-6.87843v-2.31c0-.30005-.23994-.51001-.49989-.51001-.08,0-.15994.01996-.22993.06l-5.52876,2.76001-2.99931,1.5-1.11974.56-1.21969.60999c-.18001.09003-.27997.27002-.27997.45001s.09995.35999.27997.45001l1.21969.60999,1.11974.56,2.99931,1.5,5.52876,2.76001c.06999.03998.14993.06.22993.06.25995,0,.49989-.21002.49989-.51001v-2.31h6.87843v6.88h-2.30947c-.37992,0-.61985.39001-.44991.72998l2.75938,5.53003,1.49966,3,.55987,1.12.60985,1.21997c.09001.17999.26996.28003.44991.28003s.3599-.10004.44991-.28003l.60985-1.21997.55987-1.12,1.49966-3,2.75938-5.53003c.16994-.33997-.06999-.72998-.44991-.72998h-2.30947v-6.88h6.87843v2.31c0,.29999.23994.51001.49989.51001.08,0,.15994-.02002.22993-.06l5.52876-2.76001,2.99931-1.5,1.11974-.56,1.21969-.60999c.18001-.09003.27997-.27002.27997-.45001s-.09995-.35999-.27997-.45001ZM20.25538,11.87v-1.5h-2.19951l.69985-1.40002,1.49966-3,1.61962-3.23999,1.61962,3.23999,1.49966,3,.69985,1.40002h-2.19951v8.38h-3.23925v-6.88ZM23.49462,31.87v1.5h2.19951l-.69985,1.39996-1.49966,3.01001-1.61962,3.23999-1.61962-3.23999-1.49966-3.01001-.69985-1.39996h2.19951v-8.38h3.23925v6.88ZM34.77207,24.98999l-1.3997.70001v-2.20001H10.37763v2.20001l-1.3997-.70001-2.99931-1.5-3.23925-1.62,3.23925-1.62,2.99931-1.5,1.3997-.70001v2.20001h22.99474v-2.20001l1.3997.70001,3.00926,1.5,3.23931,1.62-3.23931,1.62-3.00926,1.5Z"/>
  </g>
</svg>