<?xml version="1.0" encoding="UTF-8"?>
<svg id="Layer_2" data-name="Layer 2" xmlns="http://www.w3.org/2000/svg" viewBox="0 0 43.75 43.75">
  <g id="Layer_1-2" data-name="Layer 1">
    <path d="M43,21.125h-5.5379c-.17834-3.74725-1.66986-7.14185-4.03351-9.7428l6.21741-6.21722,1.13257,1.13257c.26062.26062.73425.12604.87616-.24896l1.99957-5.28436c.15729-.41577-.21149-.78455-.6272-.6272l-5.28436,1.99951c-.37506.14191-.50964.61554-.24902.87622l1.09174,1.09167-6.21735,6.21722c-2.60101-2.36377-5.99573-3.85541-9.7431-4.03375V.75c0-.41406-.33594-.75-.75-.75s-.75.33594-.75.75v5.5379c-8.0285.38208-14.45502,6.80859-14.8371,14.8371H.75c-.41406,0-.75.33594-.75.75s.33594.75.75.75h5.5379c.38208,8.0285,6.80859,14.45502,14.8371,14.8371v5.5379c0,.41406.33594.75.75.75s.75-.33594.75-.75v-5.5379c8.0285-.38208,14.45502-6.80859,14.8371-14.8371h5.5379c.41406,0,.75-.33594.75-.75s-.33594-.75-.75-.75ZM35.96198,21.125h-10.28778c-.10089-.51178-.30084-.9881-.58221-1.40643l7.27136-7.27112c2.09521,2.32849,3.42261,5.34906,3.59863,8.67755ZM21.875,24.25c-1.30957,0-2.375-1.06543-2.375-2.375,0-1.30408,1.05682-2.36438,2.35889-2.37335.00568.00012.01038.00323.01611.00323s.01044-.00311.01611-.00323c1.29657.00891,2.34833,1.06067,2.35724,2.35724-.00012.00568-.00323.01038-.00323.01611s.00311.01044.00323.01611c-.00897,1.30206-1.06927,2.35889-2.37335,2.35889ZM31.3028,11.3869l-7.2713,7.27112c-.41833-.28131-.89471-.48132-1.40649-.58221V7.78802c3.32861.17603,6.34918,1.50354,8.6778,3.59888ZM21.125,7.78802v10.28778c-1.53558.30273-2.74646,1.51361-3.04919,3.04919H7.78802c.38025-7.18909,6.14789-12.95673,13.33698-13.33698ZM7.78802,22.625h10.28778c.30273,1.53558,1.51361,2.74646,3.04919,3.04919v10.28778c-7.18909-.38025-12.95673-6.14795-13.33698-13.33698ZM22.625,35.96198v-10.28778c1.53558-.30273,2.74646-1.51361,3.04919-3.04919h10.28778c-.38025,7.18903-6.14789,12.95673-13.33698,13.33698Z"/>
  </g>
</svg>