<?xml version="1.0" encoding="utf-8"?>
<!-- Generator: Adobe Illustrator 19.0.0, SVG Export Plug-In . SVG Version: 6.00 Build 0)  -->
<svg version="1.1" id="Layer_1" xmlns="http://www.w3.org/2000/svg" xmlns:xlink="http://www.w3.org/1999/xlink" x="0px" y="0px"
	 viewBox="0 0 512 512" style="enable-background:new 0 0 512 512;" xml:space="preserve">
<g id="XMLID_2_">
	<path id="XMLID_7_" d="M157.7,136.3L0.9,293.1l156.8,156.8l155.8-156.8L157.7,136.3z M68.6,293.1l88.1-88.1l88.1,88.1l-88.1,88.1
		L68.6,293.1z M447.1,141.9c-42.7-42.7-98.3-64-154-64V0l-102,102l102,102v-77.9c43.6,0,86.3,16.7,119.7,49.2
		c65.9,65.9,65.9,172.5,0,239.3c-33.4,33.4-76.1,49.2-119.7,49.2c-23.2,0-46.4-4.6-68.6-14.8l-36.2,36.2
		c32.5,17.6,68.6,26.9,104.8,26.9c55.7,0,111.3-21.3,154-64C532.4,363.6,532.4,226.3,447.1,141.9z"/>
</g>
</svg>
